PathFileType	4	(X/Y/Z)	0_coords_data.trc
DataRate	CameraRate	NumFrames	NumMarkers	Units	OrigDataRate	OrigDataStartFrame	OrigNumFrames
30.0	30.0	9	21	m	30.0	31	71
Frame#	Time	THUMB_TIP	THUMB_IP	THUMB_MCP	THUMB_CMC	INDEX_TIP	INDEX_DIP	INDEX_PIP	INDEX_MCP	MIDDLE_TIP	MIDDLE_DIP	MIDDLE_PIP	MIDDLE_MCP	RING_TIP	RING_DIP	RING_PIP	RING_MCP	PINKY_TIP	PINKY_DIP	PINKY_PIP	PINKY_MCP	WRIST
X1	Y1	Z1	X2	Y2	Z2	X3	Y3	Z3	X4	Y4	Z4	X5	Y5	Z5	X6	Y6	Z6	X7	Y7	Z7	X8	Y8	Z8	X9	Y9	Z9	X10	Y10	Z10	X11	Y11	Z11	X12	Y12	Z12	X13	Y13	Z13	X14	Y14	Z14	X15	Y15	Z15	X16	Y16	Z16	X17	Y17	Z17	X18	Y18	Z18	X19	Y19	Z19	X20	Y20	Z20	X21	Y21	Z21
29	0.9999999999999956	0.4751126926599072	-0.03356017751840834	-0.1717591815572337	0.4818324586028472	-0.03600695298965462	-0.14992210218600333	0.46968659663970214	-0.03235645321150937	-0.12149725586202142	0.47302722402861486	-0.031893531000559916	-0.07701674426789679	0.5639345403813739	0.003684028453011079	-0.1859461554788545	0.5524001077550178	0.0023800940775362545	-0.17204447863278632	0.537743206028025	-0.0032450829731431874	-0.15240924377516923	0.5119486956812259	-0.008344168774851113	-0.11890881610691834	0.598987936348895	0.029076243904381682	-0.1437607678538706	0.5846306579153288	0.021999502152898254	-0.13528797125747688	0.5614758118131044	0.010443259657686221	-0.12188215493118926	0.5237951060193313	-0.0008868734028562031	-0.10071755201231697	0.6099596182511421	0.028177208248848506	-0.09514940968463703	0.5931934174923212	0.022492487256857596	-0.09174669615597453	0.5706075251022276	0.012713357798480152	-0.08794852936403375	0.5336560525235804	-0.0025826011705483154	-0.082003519062336	0.6036123562221776	-0.0005486548157163096	-0.039036010273696575	0.5870357592108141	-0.0010379988351152392	-0.04327593644681932	0.567030481984269	-0.0015961300821022428	-0.0496233289508492	0.5332289337327789	-0.004906278703054268	-0.06176341556130627	0.4622830810018608	-0.023011742144276925	-0.051989820119430985
30	1.0333333333333288	0.47513782824065065	-0.03326165411574933	-0.17180148907613968	0.48178208296947356	-0.03575863196322293	-0.1499469934121409	0.46959277640933517	-0.032185778698215595	-0.12153087958336939	0.47298537005519614	-0.031841028055106246	-0.07705322839371981	0.5637736015496324	0.0038583318557383617	-0.18602382556417063	0.5522328223265573	0.002603476124075965	-0.17212289926349006	0.5375843440474384	-0.003009551850197356	-0.15247790412309342	0.511818407537762	-0.008139654057942591	-0.11896022727762251	0.5987311826690151	0.029414983457739963	-0.14395423397110707	0.58442029020601	0.022269901050254726	-0.1354603447381027	0.5613197352714789	0.010655261778799163	-0.12201140179411346	0.5237048410590314	-0.0007353016655371469	-0.10076233784280186	0.6098315405664464	0.028379121007889863	-0.09538109274627321	0.5930923694239265	0.022631711040296487	-0.09195072423460565	0.5705358164430084	0.012800354118501778	-0.0881132357726927	0.533606533607148	-0.002511841852140595	-0.0820729081503132	0.6036915135280884	-0.0007238424062960824	-0.03942444224196667	0.5870797928821548	-0.0010783315275485483	-0.04353845180009597	0.5670471455916714	-0.0015447400039390047	-0.04980642792227741	0.5332104258859746	-0.004876480287835827	-0.06184218121148949	0.4622830810018608	-0.023011742144276925	-0.051989820119430985
31	1.0666666666666622	0.474981389105793	-0.03288456168580001	-0.17184967003887036	0.4816360465409645	-0.035441671067850566	-0.15000529488120684	0.46945095429885597	-0.03196662482714341	-0.12157524773604267	0.4729273973345658	-0.03176889046163012	-0.07710317509556242	0.5634162711379581	0.004270674699169974	-0.18620502570246256	0.5519015197813609	0.0030246464177375865	-0.1722817389239173	0.5372976968844201	-0.002623608263835786	-0.15261360711515448	0.5116268523255388	-0.007867783734800127	-0.11904066477666558	0.5983094337941576	0.030014501500073454	-0.1442345091334517	0.5840671976809045	0.022765512412783018	-0.13571330806161364	0.5610634308152316	0.011025923848335228	-0.1222070754141556	0.5235581221938169	-0.0005145254173981595	-0.10084547957120737	0.6095350761431756	0.028955684599943465	-0.09567040415487166	0.5928516000222301	0.023072215082986514	-0.09219961015855238	0.5703673325857541	0.013094064144478557	-0.08831705936128292	0.5335282095112562	-0.0023952859416837002	-0.08217866551514447	0.6037100781173901	-0.0005095695610157769	-0.039787509168144	0.5870759099017133	-0.000841074449450474	-0.04381175472246962	0.5670256382006025	-0.001325072620577239	-0.05002177641985378	0.5331739657615748	-0.0048056387020988245	-0.061973068560578326	0.4622830810018609	-0.023011742144276925	-0.051989820119430985
32	1.0999999999999952	0.4745967766578265	-0.03246685532897475	-0.17191264787689348	0.4813494182846405	-0.03509736155395793	-0.15010709197799144	0.4692536786543272	-0.03174929741656096	-0.1216237012155218	0.472854952979072	-0.031689802041602544	-0.07716116323647365	0.5628152314726481	0.004852901846135738	-0.18653358129753417	0.551360541204554	0.0035748665119637035	-0.1725637317440623	0.5368777183777799	-0.0021661725103404583	-0.1528330919441811	0.5113746388130118	-0.007569806341114926	-0.11915773347339387	0.5977544569142119	0.030723413757344664	-0.14464258503665872	0.5836054254087163	0.023342787872263737	-0.13607921718277305	0.5607248939149282	0.01146160942356822	-0.1224877335539698	0.523371911039907	-0.00028636560311823267	-0.10097290903433392	0.6091236446644543	0.029749018664118942	-0.0960034713408035	0.5925238630060738	0.02364893771846588	-0.09250543455560944	0.5701362488241117	0.01347251144499284	-0.08857923301465648	0.5334197522670251	-0.0022685385162292127	-0.0823471337943486	0.6036705743828029	-2.546358869615073e-05	-0.040108372814801396	0.5870255030120941	-0.0004163230840166232	-0.04408188862814949	0.5669673225475966	-0.0010099127250131623	-0.05025676245615224	0.5331278154371987	-0.004734554560841153	-0.062168867757908475	0.462283081001861	-0.023011742144276925	-0.051989820119430985
33	1.1333333333333284	0.473950707988508	-0.031894405190980635	-0.1719810864924522	0.48090015054419355	-0.03466160228073978	-0.15025442387640237	0.46896900104440997	-0.031457733696698686	-0.12168515896268767	0.47275382035131164	-0.03158855157530227	-0.07723802149021658	0.5620767977589615	0.0052015875082940255	-0.18700661434784743	0.5507179967197338	0.003926590520217266	-0.17295841084591745	0.5363642707612153	-0.0018468203841015551	-0.15314306046704085	0.511094690057121	-0.00731448365712295	-0.11930241857933233	0.5972184059861443	0.031115479978596206	-0.14520792143486244	0.5831490229311694	0.023651046563758715	-0.13658616440697957	0.5603766798873687	0.011695290915294976	-0.12287887258219915	0.5231754633112803	-0.00012806840373968953	-0.10114351933749771	0.6088255345866965	0.030159080167107	-0.0964278787040102	0.5922983060934593	0.02387504147812125	-0.09291197539367058	0.5699695810483931	0.013588853780602816	-0.08893675722188926	0.5333034887113084	-0.002222459811064059	-0.08258688562993127	0.6036935931686529	-8.659113402864627e-06	-0.040572320433565845	0.5870347799876215	-0.0004116730388147305	-0.044486592163456073	0.5669602334976982	-0.0010115461009490012	-0.05060743806359369	0.5330926526791684	-0.004748753626941715	-0.0624355275292694	0.462283081001861	-0.023011742144276925	-0.051989820119430985
34	1.1666666666666616	0.4730414832785438	-0.03096702867404566	-0.17204966637578994	0.4802851293879902	-0.034015386745789855	-0.15045714211141697	0.46860832813091857	-0.031042770053725688	-0.12175808529059257	0.47262451789674453	-0.03146422305010588	-0.07733306309434912	0.5613400756842234	0.005257667532358012	-0.18753167730804593	0.5500869447248887	0.003995110378675282	-0.17339756987086585	0.5358692641929717	-0.0017523144196386342	-0.15347686452491804	0.5108189524496052	-0.007141615936461898	-0.11946108282405266	0.5967303131906226	0.031279037887379735	-0.14580567068848121	0.5827506746002776	0.02371460617481358	-0.1371252860340284	0.560084993319821	0.011699686031408696	-0.1232935061037243	0.5229997262657339	-8.97984481794678e-05	-0.10134267595467078	0.6086437929770318	0.030194983217299076	-0.09696873648163784	0.5921841819831879	0.02376019741088098	-0.09340857671600156	0.5698897776513737	0.013433264813638157	-0.08934729888487569	0.5332114095206176	-0.00228646928221532	-0.08284283078822041	0.6038048076481425	-0.00043990124964687904	-0.041191541918811025	0.5871262388553038	-0.00080577053830444	-0.04502448891637889	0.5670195081531246	-0.0013175071326981813	-0.05104690746111645	0.5330819501939882	-0.004877451762152263	-0.06272819185134865	0.4622830810018609	-0.023011742144276925	-0.051989820119430985
35	1.1999999999999948	0.4722471515971467	-0.02986375605807634	-0.172089748900923	0.47978942001896774	-0.0332587281772978	-0.15065173706766494	0.4683918583355271	-0.03061144602747412	-0.12180893060068959	0.4725474866098406	-0.031353615763638376	-0.0774009365261038	0.5608737700890887	0.005531101824719942	-0.18782362172778289	0.5497153053368361	0.004166512188461535	-0.173624094992805	0.5355877026366578	-0.0016332552863019822	-0.1536545338512929	0.5106773656947682	-0.007041411580544277	-0.11953909668659313	0.5963870398296927	0.031668786291484174	-0.14602044336029707	0.5824984931207882	0.023924815201493366	-0.1373521573664015	0.5599235987261895	0.011772722868092833	-0.12349176974580373	0.522928986829756	-0.00011600109269149783	-0.10144171636227317	0.6084966946577764	0.03025595029277728	-0.097379251356295	0.5921257715868257	0.023620323524462417	-0.09377906591709384	0.5698714472167451	0.013238216487106769	-0.08963939451755853	0.5331852232971636	-0.0023966146727489868	-0.0829765225298087	0.6039489518780177	-0.0009056175591977134	-0.04174167520370653	0.5872518804870108	-0.0012463333726316916	-0.04549556914175201	0.5671097795543436	-0.0016553795465871213	-0.05140661560120596	0.5330896761525671	-0.005014247307549957	-0.06290592092356345	0.4622830810018609	-0.023011742144276925	-0.051989820119430985
36	1.233333333333328	0.47191652558715225	-0.029132584174605736	-0.17207077402936743	0.4796263085095387	-0.03277250642844953	-0.1507327747493119	0.4683478506241733	-0.030311987286964492	-0.12182668139025654	0.472536779689426	-0.03128903923373427	-0.07742636334207581	0.561009516764967	0.0061513575725754555	-0.1876252530852554	0.5498747437576024	0.004496908004084088	-0.1734379479606103	0.5357348583833005	-0.0014705919963342584	-0.1535265839102341	0.5107697409879243	-0.007105794532624388	-0.1194880248953451	0.596399277489662	0.03216000937990504	-0.1456027020885129	0.5825786171672601	0.024177359831869083	-0.13704310779637346	0.5600428598553314	0.011818982278781753	-0.12330193984626081	0.5230323238302088	-0.00024782932262534807	-0.10137569525423701	0.6084151818937482	0.030392003241327514	-0.09746450054582312	0.5921620104678182	0.02347875819104872	-0.09385320417552429	0.5699593864609998	0.013007984816863272	-0.08965959342125851	0.5332568851296051	-0.002554246163561813	-0.08291687906197531	0.6040873202267116	-0.0011227251291749951	-0.042018675013794915	0.5873802168186169	-0.0014909981621200608	-0.045725030458761806	0.5672114691916752	-0.0018938334533885604	-0.05154494127327092	0.5331316162233131	-0.005170356033784351	-0.06289004913679436	0.4622830810018608	-0.023011742144276925	-0.051989820119430985
37	1.2666666666666608	0.47223865228975903	-0.029275667730869315	-0.17204781323112933	0.4798421681605487	-0.03292317087052632	-0.15067300873497447	0.4684564046356521	-0.030339590290488716	-0.12181976800985689	0.47256516314254127	-0.031299240765625624	-0.07741157986287617	0.5619460127470627	0.006550219838997062	-0.18688106717068698	0.5507374322116291	0.004545346054770083	-0.17279745245393135	0.5364287192345623	-0.0015981669130938903	-0.153060993441393	0.5111364683278438	-0.00741690327565192	-0.11929591613932466	0.5969779705709304	0.0321518277420797	-0.14461712589107656	0.5831598563363634	0.023965823925332974	-0.13624759421286015	0.5605379475964093	0.011503954422043883	-0.12274349841032	0.5233307656086299	-0.0005505356698607411	-0.10114574857029152	0.6086175779405899	0.030045927362568614	-0.09731465972429665	0.5924578395876007	0.02291986974614746	-0.09369773296109352	0.5702608566887108	0.012455790236496123	-0.08945780734829178	0.5334338013740759	-0.002785548193818488	-0.08266145290598703	0.6042433439848416	-0.001304590713795073	-0.04200615292369253	0.5875312370536157	-0.0017531248081460449	-0.04568097252273062	0.5673455325772863	-0.0021815084716612088	-0.05143995170580873	0.5332194759162923	-0.005385452861739526	-0.06266628005108316	0.462283081001861	-0.023011742144276925	-0.051989820119430985
